<?xml version="1.0" standalone="no"?>
<!DOCTYPE svg PUBLIC "-//W3C//DTD SVG 20010904//EN"
 "http://www.w3.org/TR/2001/REC-SVG-20010904/DTD/svg10.dtd">
<svg version="1.0" xmlns="http://www.w3.org/2000/svg"
 width="300.000000pt" height="345.000000pt" viewBox="0 0 300.000000 345.000000"
 preserveAspectRatio="xMidYMid meet">
<metadata>
Created by potrace 1.10, written by Peter Selinger 2001-2011
</metadata>
<g transform="translate(0.000000,345.000000) scale(0.100000,-0.100000)"
fill="#fd6400" stroke="none">
<path d="M10 1720 l0 -1720 1495 0 1495 0 0 1050 0 1050 -172 2 -173 3 0 80 0
80 173 3 172 2 0 110 0 110 -212 2 -213 3 0 80 0 80 213 3 212 2 0 105 0 105
-282 2 -283 3 0 75 0 75 283 3 282 2 0 205 0 205 -1495 0 -1495 0 0 -1720z
m1555 1161 c421 -113 715 -498 715 -934 0 -176 -61 -376 -158 -521 l-48 -74
36 5 c25 4 49 -1 76 -15 22 -11 151 -133 290 -274 273 -275 287 -294 265 -368
-15 -52 -135 -166 -183 -175 -69 -13 -105 15 -379 291 -236 238 -258 262 -264
301 -4 23 -4 51 0 62 5 16 -9 10 -62 -26 -478 -323 -1140 -148 -1396 370 -132
267 -137 562 -12 833 68 148 199 303 335 394 82 56 213 112 310 135 41 9 80
19 85 21 6 2 78 2 160 0 114 -2 169 -8 230 -25z"/>
<path d="M1155 2655 c-123 -26 -271 -110 -355 -201 -139 -149 -200 -302 -200
-501 0 -152 26 -250 100 -373 93 -158 237 -265 445 -331 55 -18 275 -18 345 0
178 45 352 175 449 335 18 31 47 95 64 143 28 81 31 99 31 223 1 145 -14 208
-72 325 -92 185 -264 323 -469 375 -90 23 -245 26 -338 5z"/>
</g>
</svg>
